<svg xmlns="http://www.w3.org/2000/svg" viewBox="0 0 64 64"><g id="Layer_7" data-name="Layer 7"><path d="M60,58.58H53v-.5a1,1,0,0,0-2,0v.5H45v-.5a1,1,0,0,0-2,0v.5H37v-.5a1,1,0,0,0-2,0v.5H29v-.5a1,1,0,0,0-2,0v.5H21v-.5a1,1,0,0,0-2,0v.5H13v-.5a1,1,0,0,0-2,0v.5H4a1,1,0,0,0,0,2H60a1,1,0,0,0,0-2Z"/><path d="M13,40.84a3.54,3.54,0,1,0-2,0v1.41a1,1,0,0,0,2,0Zm-2.54-3.38A1.54,1.54,0,1,1,12,39,1.54,1.54,0,0,1,10.46,37.46Z"/><path d="M13,45.42a1,1,0,0,0-2,0v3.16a1,1,0,0,0,2,0Z"/><path d="M12,50.75a1,1,0,0,0-1,1v3.17a1,1,0,0,0,2,0V51.75A1,1,0,0,0,12,50.75Z"/><path d="M21,50.76a3.54,3.54,0,1,0-2,0v.66a1,1,0,0,0,2,0Zm-2.54-3.38A1.54,1.54,0,1,1,20,48.92,1.54,1.54,0,0,1,18.46,47.38Z"/><path d="M20,52.64a1,1,0,0,0-1,1v2.22a1,1,0,0,0,2,0V53.64A1,1,0,0,0,20,52.64Z"/><path d="M29,36.42a3.54,3.54,0,1,0-2,0v.66a1,1,0,0,0,2,0ZM26.46,33A1.54,1.54,0,1,1,28,34.58,1.54,1.54,0,0,1,26.46,33Z"/><path d="M29,46.08a1,1,0,0,0-2,0v3a1,1,0,0,0,2,0Z"/><path d="M29,40.08a1,1,0,0,0-2,0v3a1,1,0,0,0,2,0Z"/><path d="M28,51.08a1,1,0,0,0-1,1v3a1,1,0,0,0,2,0v-3A1,1,0,0,0,28,51.08Z"/><path d="M37,21.26a3.54,3.54,0,1,0-2,0v.66a1,1,0,0,0,2,0Zm-2.54-3.38A1.54,1.54,0,1,1,36,19.42,1.54,1.54,0,0,1,34.46,17.88Z"/><path d="M37,30.26a1,1,0,0,0-2,0V33a1,1,0,0,0,2,0Z"/><path d="M37,35.83a1,1,0,0,0-2,0v2.78a1,1,0,0,0,2,0Z"/><path d="M37,24.7a1,1,0,0,0-2,0v2.78a1,1,0,1,0,2,0Z"/><path d="M36,51.52a1,1,0,0,0-1,1V55.3a1,1,0,0,0,2,0V52.52A1,1,0,0,0,36,51.52Z"/><path d="M37,41.39a1,1,0,0,0-2,0v2.78a1,1,0,0,0,2,0Z"/><path d="M37,47a1,1,0,0,0-2,0v2.78a1,1,0,1,0,2,0Z"/><path d="M45,27.09a3.54,3.54,0,1,0-2,0v.66a1,1,0,0,0,2,0Zm-2.54-3.38A1.54,1.54,0,1,1,44,25.25,1.54,1.54,0,0,1,42.46,23.71Z"/><path d="M44,51.57a1,1,0,0,0-1,1v2.76a1,1,0,0,0,2,0V52.57A1,1,0,0,0,44,51.57Z"/><path d="M45,47.05a1,1,0,0,0-2,0v2.76a1,1,0,0,0,2,0Z"/><path d="M45,30.51a1,1,0,0,0-2,0v2.76a1,1,0,1,0,2,0Z"/><path d="M45,41.54a1,1,0,1,0-2,0V44.3a1,1,0,0,0,2,0Z"/><path d="M45,36a1,1,0,0,0-2,0v2.76a1,1,0,0,0,2,0Z"/><path d="M53,38.3a3.54,3.54,0,1,0-2,0v.78a1,1,0,0,0,2,0Zm-2.54-3.38A1.54,1.54,0,1,1,52,36.46,1.54,1.54,0,0,1,50.46,34.92Z"/><path d="M52,51.65a1,1,0,0,0-1,1v2.72a1,1,0,1,0,2,0V52.65A1,1,0,0,0,52,51.65Z"/><path d="M53,47.23a1,1,0,1,0-2,0v2.71a1,1,0,0,0,2,0Z"/><path d="M53,41.8a1,1,0,0,0-2,0v2.71a1,1,0,0,0,2,0Z"/><path d="M17.61,31.18a1,1,0,0,0,.77.36h0a1,1,0,0,0,.77-.41L35.5,8.77l20.55,20a1,1,0,0,0,1.4-1.44L36.07,6.53a1,1,0,0,0-1.5.13L18.33,28.91,8.64,17.24a1,1,0,1,0-1.53,1.27Z"/></g></svg>
