<svg width="64" height="64" viewBox="0 0 64 64" fill="none" xmlns="http://www.w3.org/2000/svg">
<path d="M58.985 6.01599H54.016V57.985H58.985V6.01599Z" fill="black"/>
<path d="M36.982 32.019H32.019V57.982H36.982V32.019Z" fill="black"/>
<path d="M47.985 15.016H43.016V57.985H47.985V15.016Z" fill="black"/>
<path d="M14.976 38.0229H10.023V57.9761H14.976V38.0229Z" fill="black"/>
<path d="M61 58H26V25H21V58H6V3C6 2.73478 5.89464 2.48043 5.70711 2.29289C5.51957 2.10536 5.26522 2 5 2C4.73478 2 4.48043 2.10536 4.29289 2.29289C4.10536 2.48043 4 2.73478 4 3V16H3C2.73478 16 2.48043 16.1054 2.29289 16.2929C2.10536 16.4804 2 16.7348 2 17C2 17.2652 2.10536 17.5196 2.29289 17.7071C2.48043 17.8946 2.73478 18 3 18H4V31H3C2.73478 31 2.48043 31.1054 2.29289 31.2929C2.10536 31.4804 2 31.7348 2 32C2 32.2652 2.10536 32.5196 2.29289 32.7071C2.48043 32.8946 2.73478 33 3 33H4V46H3C2.73478 46 2.48043 46.1054 2.29289 46.2929C2.10536 46.4804 2 46.7348 2 47C2 47.2652 2.10536 47.5196 2.29289 47.7071C2.48043 47.8946 2.73478 48 3 48H4V58H3C2.73478 58 2.48043 58.1054 2.29289 58.2929C2.10536 58.4804 2 58.7348 2 59C2 59.2652 2.10536 59.5196 2.29289 59.7071C2.48043 59.8946 2.73478 60 3 60H4V61C4 61.2652 4.10536 61.5196 4.29289 61.7071C4.48043 61.8946 4.73478 62 5 62C5.26522 62 5.51957 61.8946 5.70711 61.7071C5.89464 61.5196 6 61.2652 6 61V60H16V61C16 61.2652 16.1054 61.5196 16.2929 61.7071C16.4804 61.8946 16.7348 62 17 62C17.2652 62 17.5196 61.8946 17.7071 61.7071C17.8946 61.5196 18 61.2652 18 61V60H28V61C28 61.2652 28.1054 61.5196 28.2929 61.7071C28.4804 61.8946 28.7348 62 29 62C29.2652 62 29.5196 61.8946 29.7071 61.7071C29.8946 61.5196 30 61.2652 30 61V60H40V61C40 61.2652 40.1054 61.5196 40.2929 61.7071C40.4804 61.8946 40.7348 62 41 62C41.2652 62 41.5196 61.8946 41.7071 61.7071C41.8946 61.5196 42 61.2652 42 61V60H52V61C52 61.2652 52.1054 61.5196 52.2929 61.7071C52.4804 61.8946 52.7348 62 53 62C53.2652 62 53.5196 61.8946 53.7071 61.7071C53.8946 61.5196 54 61.2652 54 61V60H61C61.2652 60 61.5196 59.8946 61.7071 59.7071C61.8946 59.5196 62 59.2652 62 59C62 58.7348 61.8946 58.4804 61.7071 58.2929C61.5196 58.1054 61.2652 58 61 58Z" fill="black"/>
</svg>
