<?xml version="1.0" encoding="iso-8859-1"?>
<!-- Generator: Adobe Illustrator 23.0.1, SVG Export Plug-In . SVG Version: 6.00 Build 0)  -->
<svg version="1.1" id="sell-share-pie-chart-categories"
	 xmlns="http://www.w3.org/2000/svg" xmlns:xlink="http://www.w3.org/1999/xlink" x="0px" y="0px" viewBox="0 0 64 62.267"
	 style="enable-background:new 0 0 64 62.267;" xml:space="preserve">
<path d="M59,34.267H33c-0.552,0-1,0.447-1,1v26c0,0.553,0.448,1,1,1c14.888,0,27-12.112,27-27C60,34.714,59.552,34.267,59,34.267z
	 M34,60.247v-23.98h23.98C57.467,49.258,46.992,59.734,34,60.247z"/>
<path d="M56.092,10.175c-0.391-0.391-1.023-0.391-1.414,0L36.293,28.56c-0.286,0.286-0.372,0.716-0.217,1.09s0.52,0.617,0.924,0.617
	h26c0.552,0,1-0.447,1-1C64,22.055,61.191,15.275,56.092,10.175z M39.414,28.267L55.371,12.31c4.057,4.387,6.376,9.986,6.609,15.957
	H39.414z"/>
<path d="M36.693,4.067c-3.101-1.194-6.362-1.8-9.693-1.8c-14.888,0-27,12.112-27,27s12.112,27,27,27c0.552,0,1-0.447,1-1V29.452
	L37.267,5.36C37.465,4.844,37.208,4.266,36.693,4.067z M26.067,28.908C26.022,29.023,26,29.144,26,29.267v24.98
	C12.677,53.72,2,42.717,2,29.267c0-13.785,11.215-25,25-25c2.749,0,5.447,0.445,8.034,1.326L26.067,28.908z"/>
<path d="M33.455,26.106c0.167,0.108,0.356,0.161,0.544,0.161c0.258,0,0.515-0.1,0.708-0.293L53.092,7.589
	c0.391-0.391,0.391-1.023,0-1.414c-2.687-2.688-5.849-4.742-9.399-6.108c-0.248-0.095-0.522-0.089-0.765,0.02
	c-0.242,0.108-0.432,0.308-0.527,0.555l-9.333,24.267C32.897,25.349,33.059,25.848,33.455,26.106z M43.901,2.311
	c2.607,1.122,4.974,2.66,7.056,4.585L36.625,21.228L43.901,2.311z"/>
</svg>
